<svg xmlns="http://www.w3.org/2000/svg" viewBox="0 0 1200 760" role="img" aria-labelledby="title desc">
  <title id="title">The Divine Paradox world screenshot illustration</title>
  <desc id="desc">A dark low-poly seeded world with fog, black water, and a minimal HUD.</desc>
  <defs>
    <linearGradient id="sky" x1="0" x2="0" y1="0" y2="1">
      <stop offset="0" stop-color="#071016"/>
      <stop offset=".52" stop-color="#111719"/>
      <stop offset="1" stop-color="#050607"/>
    </linearGradient>
    <radialGradient id="glow" cx=".48" cy=".45" r=".55">
      <stop offset="0" stop-color="#74d4ff" stop-opacity=".28"/>
      <stop offset=".58" stop-color="#74d4ff" stop-opacity=".08"/>
      <stop offset="1" stop-color="#74d4ff" stop-opacity="0"/>
    </radialGradient>
  </defs>
  <rect width="1200" height="760" fill="url(#sky)"/>
  <rect width="1200" height="760" fill="url(#glow)"/>
  <path d="M0 468 C170 410 306 432 472 454 C662 480 800 418 980 430 C1078 438 1142 464 1200 490 L1200 760 L0 760 Z" fill="#06090a" opacity=".82"/>
  <g stroke="#c8f5ff" stroke-opacity=".18" stroke-width="1">
    <path d="M62 300 C226 270 362 292 520 280 C690 266 796 228 1100 260"/>
    <path d="M112 350 C308 322 470 358 640 332 C812 306 942 314 1118 350"/>
  </g>
  <g transform="translate(242 158)">
    <polygon points="356,72 566,190 486,404 236,430 58,240" fill="#1e2a2e"/>
    <polygon points="356,72 566,190 384,218" fill="#41565b"/>
    <polygon points="58,240 384,218 236,430" fill="#26363a"/>
    <polygon points="384,218 566,190 486,404 236,430" fill="#101719"/>
    <polygon points="236,430 486,404 382,472" fill="#050809"/>
    <polygon points="286,258 424,250 382,335 250,332" fill="#020506"/>
    <polyline points="108,245 260,262 386,222 532,196" fill="none" stroke="#8bd3ff" stroke-opacity=".45" stroke-width="4"/>
    <polyline points="250,332 382,335 486,404" fill="none" stroke="#fff3d2" stroke-opacity=".25" stroke-width="3"/>
    <circle cx="156" cy="222" r="12" fill="#f1c57a" opacity=".8"/>
    <circle cx="518" cy="214" r="9" fill="#8bd3ff" opacity=".78"/>
  </g>
  <rect x="805" y="524" width="298" height="126" rx="22" fill="#070b0c" fill-opacity=".72" stroke="#ffffff" stroke-opacity=".14"/>
  <text x="832" y="560" fill="#edf3ef" font-family="ui-monospace, monospace" font-size="18" font-weight="700">The Divine Paradox</text>
  <text x="832" y="590" fill="#9fddeb" font-family="ui-monospace, monospace" font-size="15">seed 391204718</text>
  <text x="832" y="620" fill="#b8c7c2" font-family="ui-monospace, monospace" font-size="14">A quiet world remembers its number.</text>
</svg>
